{"asset":{"generator":"Khronos glTF Spline I/O v0.0.1","version":"2.0"},"scenes":[{"nodes":[0]}],"nodes":[{"name":"","children":[1,2,3,4,5,6,7]},{"name":"Sphere","matrix":[-0.882947592858927,0.40657429972696224,0.2347357813929456,0,0.46947156278590046,0.764655045626166,0.4414737964294732,0,2.775557561562949e-17,0.500000000000011,-0.8660254037844562,0,53.710395482333524,-82.85284104226605,-2483.4202549350903,1],"mesh":0},{"name":"Point Light 3","translation":[3600.1883795619046,-1317.8497823357077,-2774.3441531968033],"extensions":{"KHR_lights_punctual":{"light":0}}},{"name":"Point Light 2","translation":[720.6937855864884,-1088.6669340797832,-1991.7832726870524],"extensions":{"KHR_lights_punctual":{"light":1}}},{"name":"Point Light","translation":[34.23846310485487,107.58244316607909,-3560.6127479396937],"extensions":{"KHR_lights_punctual":{"light":2}}},{"name":"Camera","camera":0,"translation":[0,6.12323399573677e-14,1000.0000000000013],"rotation":[-3.061616997868383e-17,0,0,1]},{"name":"frosted-glass","matrix":[1,0,0,0,0,1,0,0,0,0,1,0,0,0,0,1],"mesh":1},{"name":"Personal Camera","camera":1,"translation":[-672.4677357918027,-28.912612706630696,-2299.498763680518],"rotation":[-0.02163993372818826,-0.8104052028530682,-0.029993292512563267,0.5847012252947422]}],"cameras":[{"type":"perspective","perspective":{"aspectRatio":1.902097902097902,"yfov":0.4590215932745087,"znear":32,"zfar":5000}},{"type":"orthographic","orthographic":{"xmag":1360,"ymag":715,"zfar":100000,"znear":-100000}}],"meshes":[{"primitives":[{"attributes":{"POSITION":1,"NORMAL":2,"RANDOMCOLOR":3},"indices":0}]},{"primitives":[{"attributes":{"POSITION":5,"NORMAL":6,"TEXCOORD_0":7},"indices":4}]}],"buffers":[{"uri":"data:application/octet-stream;base64,","byteLength":661248},{"uri":"data:application/octet-stream;base64,","byteLength":103248}],"bufferViews":[{"buffer":0,"byteOffset":0,"byteLength":94464,"target":34963},{"buffer":0,"byteOffset":94464,"byteLength":188928,"target":34962},{"buffer":0,"byteOffset":283392,"byteLength":188928,"target":34962},{"buffer":0,"byteOffset":472320,"byteLength":188928,"target":34962},{"buffer":1,"byteOffset":0,"byteLength":14928,"target":34963},{"buffer":1,"byteOffset":14928,"byteLength":29440,"target":34962},{"buffer":1,"byteOffset":44368,"byteLength":29440,"target":34962},{"buffer":1,"byteOffset":73808,"byteLength":29440,"target":34962}],"accessors":[{"bufferView":0,"byteOffset":0,"componentType":5125,"count":23616,"type":"SCALAR","min":[0],"max":[15743]},{"bufferView":1,"byteOffset":0,"componentType":5126,"count":15744,"type":"VEC3","min":[-1387.6461181640625,-1334.6888427734375,-1063.845458984375],"max":[1387.64599609375,1333.3548583984375,1063.845458984375]},{"bufferView":2,"byteOffset":0,"componentType":5126,"count":15744,"type":"VEC3","min":[-1,-1,-1],"max":[1,1,1]},{"bufferView":3,"byteOffset":0,"componentType":5126,"count":15744,"type":"VEC3","min":[0.9257175326347351,0.936354398727417,0.022291742265224457],"max":[0.9257175326347351,0.936354398727417,0.022291742265224457]},{"bufferView":4,"byteOffset":0,"componentType":5125,"count":3732,"type":"SCALAR","min":[0],"max":[919]},{"bufferView":5,"byteOffset":0,"componentType":5126,"count":920,"type":"VEC3","min":[-960,-540,0],"max":[960,540,128]},{"bufferView":6,"byteOffset":0,"componentType":5126,"count":920,"type":"VEC3","min":[-1,-1,-1],"max":[1,1,1]},{"bufferView":7,"byteOffset":0,"componentType":5126,"count":920,"type":"VEC2","min":[0,0],"max":[1,1]}],"extensions":{"KHR_lights_punctual":{"lights":[{"type":"point","name":"Point Light 3","color":[0.058195117353190856,0.039871806956357794,0.4563106796116505],"intensity":10,"range":10000},{"type":"point","name":"Point Light 2","color":[0.8737864077669903,0.19087567159958538,0.19087567159958538],"intensity":10,"range":3026},{"type":"point","name":"Point Light","color":[0.9320388349514563,0.8189273258554058,0.8189273258554058],"intensity":10,"range":10000}]}},"extensionsUsed":["KHR_lights_punctual"]}